<?xml version="1.0" encoding="UTF-8" standalone="no"?>
<svg width="640" xmlns="http://www.w3.org/2000/svg" xmlns:xlink="http://www.w3.org/1999/xlink" height="480">
 <defs>
  <linearGradient id="linearGradient4331" y2="129.07" x2="91.694" gradientTransform="matrix(.14569 0 0 .13393 -20.104 -24.219)" y1="129.07" x1="84.332">
   <stop id="stop3693" stop-color="#fff" offset="0"/>
   <stop id="stop3695" stop-color="#919191" offset="1"/>
  </linearGradient>
  <linearGradient id="linearGradient4342" y2="25.081" x2="16.208" gradientTransform="matrix(.13363 0 0 .13363 -20.467 -43.818)" y1="25.081" x1="8.6665">
   <stop id="stop3761" offset="0"/>
   <stop id="stop3767" stop-color="#383838" offset=".76854"/>
   <stop id="stop3769" stop-color="#262626" offset=".91430"/>
   <stop id="stop3763" offset="1"/>
  </linearGradient>
  <linearGradient id="linearGradient4324" y2="342.52" x2="12.828" gradientTransform="matrix(.10704 0 0 .093333 25.917 -20.624)" y1="342.52" x1="3.4926">
   <stop id="stop3675-2" offset="0"/>
   <stop id="stop3677-2" stop-color="#797979" offset="1"/>
  </linearGradient>
 </defs>
 <path id="rect3761-0" d="m209.25 111.58h191.78l10.731 143.24c-1.3662 24.441-2.0223 25.234-12.11 36.103-12.406 10.523-27.436 16.085-41.118 20.055-34.324 9.9573-72.241 9.8901-118-12.047-14.913-6.6951-21.561-36.063-20.553-48.128l-10.731-139.23z" stroke="#d3d3d3" stroke-width=".241" fill="url(#linearGradient4342)"/>
 <path id="rect2830-2" fill="#3f3f3f" d="m93.846 125.73l207.06-64.914 215.89 59.504-208.32 113.6-214.63-108.19z"/>
 <path id="rect3614-4" fill="#ff0" d="m171.2 263.23l11.38-0.434c6.4356 37.358 18.188 89.281 14.607 97.738-4.5702 13.934-26.14 19.817-31.226 3.9227 0.29347-30.053 6.0965-61.217 5.238-101.23z"/>
 <path id="path3605-7-8" fill="#373737" d="m322.42 117.08c-7.4928 5.8509-23.187-5.2387-25.718-0.56947-0.2645 0.48917-0.003326 3.2578 0.036407 4.0787 6.1793 6.4497 18.105 6.5677 25.369 0.080261l0.3129-3.5895z"/>
 <path id="rect3617-6" fill="#ff0" d="m304.64 116.81l6.3936 2.7054c-32.245 11.811-117.52 23.651-133.29 45.688-4.748 6.7691-0.22818 37.437-1.7408 56.098l-7.4968 0.0595c1.0305-18.249-2.2354-45.378 1.1198-55.872 3.658-10.697 18.8-24.622 135.02-48.679z"/>
 <rect id="rect3612-5" transform="matrix(6.5484 -1.325 1.1025 9.3138 -1144.7 -1327.4)" height="3.2807" width="1.9868" y="191.92" x="167.97" fill="url(#linearGradient4331)"/>
 <g fill="#424345">
  <path id="rect3723-0" d="m320.85 112.56c23.679-11.203 48.27-20.712 77.334-20.082 1.2994-0.44119 3.4984 2.9443-1.2498 3.1238-25.614 1.458-49.599 11.441-74.054 18.966-3.0878 1.4886-3.9078-1.195-2.031-2.0082z"/>
  <path id="rect3723-1-9" d="m321.27 120.25c28.032 8.6524 56.264 19.679 84.724 44.11 1.4664 0.64139 2.2394 5.6954-2.5269 1.9753-25.913-19.597-53.743-29.671-81.02-42.492-3.6669-1.1016-3.3675-4.351-1.1766-3.5934z"/>
  <path id="rect3723-1-2-0" d="m304.96 113.91c-27.667-10.91-56.494-20.573-91.091-22.685-1.5259-0.46265-4.2915 1.9955 1.3482 2.5621 30.4 3.4405 58.485 13.422 87.238 21.516 3.6066 1.4444 4.7008-0.58675 2.5046-1.3928z"/>
 </g>
 <path id="path3610-0" fill="#ff0" d="m183.25 230.92a10.267 14.663 0 1 1 -20.533 0 10.267 14.663 0 1 1 20.533 0z"/>
 <path id="path3605-6" fill="url(#linearGradient4324)" d="m322.42 117.08c-5.7665 5.92-19.883 5.7224-25.789 0 0-4.1734 5.773-7.5566 12.895-7.5566 7.1215 0 12.895 3.3832 12.895 7.5566z"/>
 <path id="rect3723-8-1" d="m325.88 116.2c23.679-11.203 48.27-20.712 77.334-20.082 1.2994-0.4412 3.4984 2.9445-1.2498 3.1238-25.613 1.458-49.599 11.442-74.054 18.966-3.0877 1.4886-3.9077-1.195-2.0308-2.0082z"/>
 <path id="rect3723-8-8-3" d="m317.28 123.22c28.336 8.8534 56.868 20.095 85.592 44.814 1.4818 0.65294 2.2492 5.7382-2.5623 1.972-26.161-19.844-54.289-30.126-81.85-43.166-3.7066-1.1278-3.3944-4.3928-1.1799-3.619z"/>
 <path id="rect3723-8-8-1-8" d="m208.88 90.166c28.649 3.4451 57.674 8.7473 87.92 24.644 1.5127 0.32976 2.6594 4.2407-2.3784 1.8729-27.343-12.376-55.896-16.972-84.099-23.813-3.7453-0.42677-3.6869-3.038-1.4417-2.7044z"/>
</svg>
